https://sharemania.us/

MTV Video Music Awards 2022 (+Pre Show) HDTV MPEG2 1080i DD2.0-ilya2129

Pre-Show
Saucy Santana - "Booty", "Too Much"
Yung Gravy - "Betty (Get Money)"
Dove Cameron - "Boyfriend", "Breakfast"

Main Show
Jack Harlow, Fergie - "First Class", "Glamorous"
Lizzo - "About Damn Time", "2 Be Loved (Am I Ready)"
Blackpink - "Pink Venom"
J Balvin, Ryan Castro - "Nivel de Perreo"
Khalid, Marshmello - "Numb"
Nicki Minaj - Michael Jackson Video Vanguard Medley
Eminem, Snoop Dogg - "From the D 2 the LBC"
Red Hot Chili Peppers - Global Icon Medley
Kane Brown - "Grand"
Måneskin - "Supermodel”
Bad Bunny - "Tití Me Preguntó"
Panic! at the Disco - "Don't Let the Light Go Out"

Extended Play Stage
Conan Gray - "Disaster", "Memories"
Flo Milli - "Conceited", "Bedtime"
JID - "Dance Now", "Surround Sound"
Lauren Spencer-Smith - "Fingers Crossed", "Flowers"

General
ID : 1 (0x1)
Complete name : D:\MTV Video Music Awards 2022\MTV Video Music Awards 2022 HDTV MPEG2 1080i DD2.0-ilya2129.ts
Format : MPEG-TS
File size : 13.2 GiB
Duration : 2 h 31 min
Overall bit rate mode : Variable
Overall bit rate : 12.4 Mb/s
Law rating : TV-14 (DL)

Video
ID : 302 (0x12E)
Menu ID : 1 (0x1)
Format : MPEG Video
Format version : Version 2
Format profile : Main@High
Format settings : BVOP
Format settings, BVOP : Yes
Format settings, Matrix : Default
Format settings, GOP : Variable
Format settings, picture structure : Frame
Codec ID : 2
Duration : 2 h 31 min
Bit rate mode : Variable
Bit rate : 11.4 Mb/s
Maximum bit rate : 64.0 Mb/s
Width : 1 920 pixels
Height : 1 080 pixels
Display aspect ratio : 16:9
Active Format Description : Letterbox 16:9 image
Frame rate : 29.970 (30000/1001) FPS
Color space : YUV
Chroma subsampling : 4:2:0
Bit depth : 8 bits
Scan type : Interlaced
Scan order : Top Field First
Compression mode : Lossy
Bits/(Pixel*Frame) : 0.184
Time code of first frame : 00:08:22;12
Time code source : Group of pictures header
Stream size : 12.1 GiB (92%)

Audio
ID : 303 (0x12F)
Menu ID : 1 (0x1)
Format : AC-3
Format/Info : Audio Coding 3
Commercial name : Dolby Digital
Codec ID : 129
Duration : 2 h 31 min
Bit rate mode : Constant
Bit rate : 384 kb/s
Channel(s) : 2 channels
Channel layout : L R
Sampling rate : 48.0 kHz
Frame rate : 31.250 FPS (1536 SPF)
Compression mode : Lossy
Delay relative to video : 22 ms
Stream size : 417 MiB (3%)
Language : English
Service kind : Complete Main

Text #1
ID : 302 (0x12E)-CC1
Menu ID : 1 (0x1)
Format : EIA-608
Muxing mode : A/53 / DTVCC Transport
Muxing mode, more info : Muxed in Video #1
Duration : 2 h 31 min
Bit rate mode : Constant
Stream size : 0.00 Byte (0%)
CaptionServiceName : CC1

Text #2
ID : 302 (0x12E)-1
Menu ID : 1 (0x1)
Format : EIA-708
Muxing mode : A/53 / DTVCC Transport
Muxing mode, more info : Muxed in Video #1
Duration : 2 h 31 min
Bit rate mode : Constant
Stream size : 0.00 Byte (0%)